<svg width="64" height="64" viewBox="0 0 64 64" fill="none" xmlns="http://www.w3.org/2000/svg">
<path d="M32 60C47.464 60 60 47.464 60 32C60 16.536 47.464 4 32 4C16.536 4 4 16.536 4 32C4 47.464 16.536 60 32 60Z" fill="white"/>
<path d="M3 36L1 38" stroke="#315488" stroke-width="2" stroke-miterlimit="10"/>
<path d="M8 31L6 33" stroke="#315488" stroke-width="2" stroke-miterlimit="10"/>
<path d="M6 36L8 38" stroke="#315488" stroke-width="2" stroke-miterlimit="10"/>
<path d="M1 31L3 33" stroke="#315488" stroke-width="2" stroke-miterlimit="10"/>
<path d="M57 15V21" stroke="#315488" stroke-width="2" stroke-miterlimit="10"/>
<path d="M54 18H60" stroke="#315488" stroke-width="2" stroke-miterlimit="10"/>
<path d="M32 14C41.9 14 50 22.1 50 32C50 41.9 41.9 50 32 50C22.1 50 14 41.9 14 32C14 22.1 22.1 14 32 14Z" stroke="#28282D" stroke-width="2" stroke-miterlimit="10"/>
<path d="M25 31L29 35L39 24L42 27L29 41L22 34L25 31Z" stroke="#BF9724" stroke-width="2" stroke-miterlimit="10"/>
</svg>
