<svg width="64" height="64" viewBox="0 0 64 64" fill="none" xmlns="http://www.w3.org/2000/svg">
<path d="M32 60C47.464 60 60 47.464 60 32C60 16.536 47.464 4 32 4C16.536 4 4 16.536 4 32C4 47.464 16.536 60 32 60Z" fill="white"/>
<path d="M20 50V44" stroke="#28282D" stroke-width="2" stroke-miterlimit="10" stroke-linecap="round" stroke-linejoin="round"/>
<path d="M20 17V14C20 11.2 22.2 9 25 9H56C53.2 9 51 11.2 51 14V50C51 52.8 48.8 55 46 55H20" stroke="#28282D" stroke-width="2" stroke-miterlimit="10" stroke-linecap="round" stroke-linejoin="round"/>
<path d="M30 25L45 25" stroke="#28282D" stroke-width="2" stroke-miterlimit="10" stroke-linecap="round" stroke-linejoin="round"/>
<path d="M33 33L45 33" stroke="#28282D" stroke-width="2" stroke-miterlimit="10" stroke-linecap="round" stroke-linejoin="round"/>
<path opacity="0.5" d="M31 29L41 29" stroke="#28282D" stroke-width="2" stroke-miterlimit="10" stroke-linecap="round" stroke-linejoin="round"/>
<path opacity="0.5" d="M25 21H45" stroke="#28282D" stroke-width="2" stroke-miterlimit="10" stroke-linecap="round" stroke-linejoin="round"/>
<path opacity="0.5" d="M34 37L41 37" stroke="#28282D" stroke-width="2" stroke-miterlimit="10" stroke-linecap="round" stroke-linejoin="round"/>
<path d="M14 50C14 52.8 16.2 55 19 55H46C43.2 55 41 52.8 41 50H14Z" stroke="#28282D" stroke-width="2" stroke-miterlimit="10" stroke-linecap="round" stroke-linejoin="round"/>
<path d="M11 23L34 46" stroke="#BF9724" stroke-width="2" stroke-miterlimit="10" stroke-linecap="round" stroke-linejoin="round"/>
<path d="M24.0001 24.1C23.8001 25 23.6001 26 23.2001 27C22.6001 24.6 22.4001 22.5 19.5001 20.4C18.4001 19.8 17.3001 19.2 16.1001 18.8C11.4001 17.1 7.10006 15.9 3.80006 12C2.70006 14.8 2.80006 18.3 3.60006 21.7C4.70006 25 6.60006 25.9 8.80006 27.3C7.60006 27.4 6.50006 27.3 5.40006 27.1C6.30006 29.1 7.40006 31 8.50006 32.4C11.7001 36.5 14.5001 36.5 17.8001 37C16.9001 37.5 16.0001 37.9 15.2001 38.2C18.1001 39.9 26.6001 41.7 30.1001 42.4C31.4001 38.3 28.5001 28.9 24.0001 24.1Z" stroke="#BF9724" stroke-width="2" stroke-miterlimit="10" stroke-linecap="round" stroke-linejoin="round"/>
<path d="M54 15H61V14C61 11.2 58.8 9 56 9H51" stroke="#28282D" stroke-width="2" stroke-miterlimit="10" stroke-linecap="round" stroke-linejoin="round"/>
<path d="M5 46L3 48" stroke="#315488" stroke-width="2" stroke-miterlimit="10"/>
<path d="M10 41L8 43" stroke="#315488" stroke-width="2" stroke-miterlimit="10"/>
<path d="M8 46L10 48" stroke="#315488" stroke-width="2" stroke-miterlimit="10"/>
<path d="M3 41L5 43" stroke="#315488" stroke-width="2" stroke-miterlimit="10"/>
</svg>
