<svg width="64" height="64" viewBox="0 0 64 64" fill="none" xmlns="http://www.w3.org/2000/svg">
<path d="M32 60C47.464 60 60 47.464 60 32C60 16.536 47.464 4 32 4C16.536 4 4 16.536 4 32C4 47.464 16.536 60 32 60Z" fill="white"/>
<path d="M57 7C54.2 7 52 9.2 52 12V13H62V12C62 9.2 59.8 7 57 7Z" fill="#E9EAEB"/>
<path d="M55 13H62V12C62 9.2 59.8 7 57 7H52" stroke="#28282D" stroke-width="2" stroke-miterlimit="10"/>
<path d="M47 56C49.8 56 52 53.8 52 51V12C52 9.2 54.2 7 57 7H21C18.2 7 16 9.2 16 12V51" stroke="#28282D" stroke-width="2" stroke-miterlimit="10" stroke-linecap="round"/>
<path d="M10 51C10 53.8 12.2 56 15 56H47C44.2 56 42 53.8 42 51H10Z" stroke="#28282D" stroke-width="2" stroke-miterlimit="10"/>
<path d="M58 27V33" stroke="#315488" stroke-width="2" stroke-miterlimit="10"/>
<path d="M55 30H61" stroke="#315488" stroke-width="2" stroke-miterlimit="10"/>
<path d="M22 32H46" stroke="#28282D" stroke-width="2" stroke-miterlimit="10" stroke-linecap="round" stroke-linejoin="round"/>
<path opacity="0.5" d="M22 37H46" stroke="#28282D" stroke-width="2" stroke-miterlimit="10" stroke-linecap="round" stroke-linejoin="round"/>
<path d="M22 42H35" stroke="#28282D" stroke-width="2" stroke-miterlimit="10" stroke-linecap="round" stroke-linejoin="round"/>
<path d="M38 17H46" stroke="#28282D" stroke-width="2" stroke-miterlimit="10" stroke-linecap="round" stroke-linejoin="round"/>
<path opacity="0.5" d="M38 22H46" stroke="#28282D" stroke-width="2" stroke-miterlimit="10" stroke-linecap="round" stroke-linejoin="round"/>
<path d="M38 27H46" stroke="#28282D" stroke-width="2" stroke-miterlimit="10" stroke-linecap="round" stroke-linejoin="round"/>
<path d="M34 27V25C34 23.7 30.7273 22 28 22C25.2727 22 22 23.7 22 25V27" stroke="#BF9724" stroke-width="2" stroke-miterlimit="10" stroke-linecap="round" stroke-linejoin="round"/>
<path d="M28 22C30.2091 22 32 20.2091 32 18C32 15.7909 30.2091 14 28 14C25.7909 14 24 15.7909 24 18C24 20.2091 25.7909 22 28 22Z" stroke="#BF9724" stroke-width="2" stroke-miterlimit="10" stroke-linecap="round" stroke-linejoin="round"/>
<path d="M5 42L3 44" stroke="#315488" stroke-width="2" stroke-miterlimit="10"/>
<path d="M10 37L8 39" stroke="#315488" stroke-width="2" stroke-miterlimit="10"/>
<path d="M8 42L10 44" stroke="#315488" stroke-width="2" stroke-miterlimit="10"/>
<path d="M3 37L5 39" stroke="#315488" stroke-width="2" stroke-miterlimit="10"/>
</svg>
