<svg width="64" height="64" viewBox="0 0 64 64" fill="none" xmlns="http://www.w3.org/2000/svg">
<path d="M32 60C47.464 60 60 47.464 60 32C60 16.536 47.464 4 32 4C16.536 4 4 16.536 4 32C4 47.464 16.536 60 32 60Z" fill="white"/>
<path d="M3 36L1 38" stroke="#315488" stroke-width="2" stroke-miterlimit="10"/>
<path d="M8 31L6 33" stroke="#315488" stroke-width="2" stroke-miterlimit="10"/>
<path d="M6 36L8 38" stroke="#315488" stroke-width="2" stroke-miterlimit="10"/>
<path d="M1 31L3 33" stroke="#315488" stroke-width="2" stroke-miterlimit="10"/>
<path d="M57 15V21" stroke="#315488" stroke-width="2" stroke-miterlimit="10"/>
<path d="M54 18H60" stroke="#315488" stroke-width="2" stroke-miterlimit="10"/>
<circle cx="32" cy="16" r="15" stroke="#28282D" stroke-width="2" stroke-miterlimit="10" stroke-linecap="round" stroke-linejoin="round"/>
<path d="M53 57V50C53 41.1634 45.8366 34 37 34H27C18.1634 34 11 41.1634 11 50V57" stroke="#28282D" stroke-width="2" stroke-miterlimit="10" stroke-linecap="round" stroke-linejoin="round"/>
<path d="M26 19C26 22.3137 28.6863 25 32 25C35.3137 25 38 22.3137 38 19H26Z" stroke="#BF9724" stroke-width="2" stroke-miterlimit="10" stroke-linecap="round" stroke-linejoin="round"/>
<path d="M30 13C30 11.3431 28.6569 10 27 10C25.3431 10 24 11.3431 24 13" stroke="#BF9724" stroke-width="2" stroke-miterlimit="10" stroke-linecap="round" stroke-linejoin="round"/>
<path d="M40 13C40 11.3431 38.6569 10 37 10C35.3431 10 34 11.3431 34 13" stroke="#BF9724" stroke-width="2" stroke-miterlimit="10" stroke-linecap="round" stroke-linejoin="round"/>
<circle opacity="0.5" cx="32" cy="42" r="2" stroke="#28282D" stroke-width="2" stroke-miterlimit="10" stroke-linecap="round" stroke-linejoin="round"/>
<circle opacity="0.5" cx="32" cy="50" r="2" stroke="#28282D" stroke-width="2" stroke-miterlimit="10" stroke-linecap="round" stroke-linejoin="round"/>
</svg>
