<svg width="64" height="64" viewBox="0 0 64 64" fill="none" xmlns="http://www.w3.org/2000/svg">
<path d="M32 60C47.464 60 60 47.464 60 32C60 16.536 47.464 4 32 4C16.536 4 4 16.536 4 32C4 47.464 16.536 60 32 60Z" fill="white"/>
<path d="M11 14L9 16" stroke="#315488" stroke-width="2" stroke-miterlimit="10"/>
<path d="M16 9L14 11" stroke="#315488" stroke-width="2" stroke-miterlimit="10"/>
<path d="M14 14L16 16" stroke="#315488" stroke-width="2" stroke-miterlimit="10"/>
<path d="M9 9L11 11" stroke="#315488" stroke-width="2" stroke-miterlimit="10"/>
<path d="M59 21V27" stroke="#315488" stroke-width="2" stroke-miterlimit="10"/>
<path d="M56 24H62" stroke="#315488" stroke-width="2" stroke-miterlimit="10"/>
<path d="M33 23C36.6 23 39 22.4 43 21V18C43 16.4 37.5 14 33 14C28.5 14 23 16.4 23 18V21C27 22.4 29.4 23 33 23Z" stroke="#BF9724" stroke-width="2" stroke-miterlimit="10" stroke-linecap="round" stroke-linejoin="round"/>
<path d="M33 4C30.4 4 28 6.1 28 8.7V9.3C28 11.9 30.4 14 33 14C35.6 14 38 11.9 38 9.3V8.7C38 6.1 35.6 4 33 4Z" fill="white" stroke="#BF9724" stroke-width="2" stroke-miterlimit="10" stroke-linecap="round" stroke-linejoin="round"/>
<path d="M33 59C36.6 59 39 58.4 43 57V54C43 52.4 37.5 50 33 50C28.5 50 23 52.4 23 54V57C27 58.4 29.4 59 33 59Z" stroke="#28282D" stroke-width="2" stroke-miterlimit="10" stroke-linecap="round" stroke-linejoin="round"/>
<path d="M33 40C30.4 40 28 42.1 28 44.7V45.3C28 47.9 30.4 50 33 50C35.6 50 38 47.9 38 45.3V44.7C38 42.1 35.6 40 33 40Z" fill="white" stroke="#28282D" stroke-width="2" stroke-miterlimit="10" stroke-linecap="round" stroke-linejoin="round"/>
<path d="M12 59C15.6 59 18 58.4 22 57V54C22 52.4 16.5 50 12 50C7.5 50 2 52.4 2 54V57C6 58.4 8.4 59 12 59Z" stroke="#28282D" stroke-width="2" stroke-miterlimit="10" stroke-linecap="round" stroke-linejoin="round"/>
<path d="M12 40C9.4 40 7 42.1 7 44.7V45.3C7 47.9 9.4 50 12 50C14.6 50 17 47.9 17 45.3V44.7C17 42.1 14.6 40 12 40Z" fill="white" stroke="#28282D" stroke-width="2" stroke-miterlimit="10" stroke-linecap="round" stroke-linejoin="round"/>
<path d="M53 59C56.6 59 59 58.4 63 57V54C63 52.4 57.5 50 53 50C48.5 50 43 52.4 43 54V57C47 58.4 49.4 59 53 59Z" stroke="#28282D" stroke-width="2" stroke-miterlimit="10" stroke-linecap="round" stroke-linejoin="round"/>
<path d="M53 40C50.4 40 48 42.1 48 44.7V45.3C48 47.9 50.4 50 53 50C55.6 50 58 47.9 58 45.3V44.7C58 42.1 55.6 40 53 40Z" fill="white" stroke="#28282D" stroke-width="2" stroke-miterlimit="10" stroke-linecap="round" stroke-linejoin="round"/>
<path opacity="0.6" d="M33 26V35" stroke="#28282D" stroke-width="2" stroke-miterlimit="10" stroke-linecap="round" stroke-linejoin="round"/>
<path opacity="0.6" d="M53 35V30H12V35" stroke="#28282D" stroke-width="2" stroke-miterlimit="10" stroke-linecap="round" stroke-linejoin="round"/>
</svg>
