<svg width="64" height="64" viewBox="0 0 64 64" fill="none" xmlns="http://www.w3.org/2000/svg">
<path d="M32 60C47.464 60 60 47.464 60 32C60 16.536 47.464 4 32 4C16.536 4 4 16.536 4 32C4 47.464 16.536 60 32 60Z" fill="white"/>
<path d="M55 45V51" stroke="#315488" stroke-width="2" stroke-miterlimit="10"/>
<path d="M52 48H58" stroke="#315488" stroke-width="2" stroke-miterlimit="10"/>
<path d="M40 49V44C40 44 44 42.6 44 38V35" stroke="#28282D" stroke-width="2" stroke-miterlimit="10" stroke-linecap="round" stroke-linejoin="round"/>
<path d="M17 35H6V9H59V35H31" stroke="#BF9724" stroke-width="2" stroke-miterlimit="10" stroke-linecap="round" stroke-linejoin="round"/>
<path d="M21 44V49" stroke="#28282D" stroke-width="2" stroke-miterlimit="10" stroke-linecap="round" stroke-linejoin="round"/>
<path d="M32 39C32 39 31.7 31 24 31C24 28.6 24 27 24 24C24 19.4 17 17.5 17 21C17 24.5 17 34.4 17 35.5C17 39.2 21 42 21 42V46" stroke="#28282D" stroke-width="2" stroke-miterlimit="10" stroke-linecap="round" stroke-linejoin="round"/>
<path d="M19 56V49H42V56" stroke="#28282D" stroke-width="2" stroke-miterlimit="10" stroke-linecap="round" stroke-linejoin="round"/>
<path opacity="0.5" d="M17 30H14C14 28.3 12.7 27 11 27V17C12.7 17 14 15.7 14 14H51C51 15.7 52.3 17 54 17V27C52.3 27 51 28.3 51 30H24" stroke="#28282D" stroke-width="2" stroke-miterlimit="10" stroke-linecap="round" stroke-linejoin="round"/>
<path opacity="0.5" d="M43 22H46" stroke="#28282D" stroke-width="2" stroke-miterlimit="10" stroke-linecap="round" stroke-linejoin="round"/>
<path d="M28 22C28 19.2 30 17 32.5 17C35 17 37 19.2 37 22C37 24.8 35 27 32.5 27C30 27 28 24.8 28 22Z" stroke="#BF9724" stroke-width="2" stroke-miterlimit="10" stroke-linecap="round" stroke-linejoin="round"/>
<path d="M22 53H25" stroke="#28282D" stroke-width="2" stroke-miterlimit="10" stroke-linecap="round" stroke-linejoin="round"/>
</svg>
