<svg width="64" height="64" viewBox="0 0 64 64" fill="none" xmlns="http://www.w3.org/2000/svg">
<path d="M32 60C47.464 60 60 47.464 60 32C60 16.536 47.464 3.99999 32 3.99999C16.536 3.99999 4 16.536 4 32C4 47.464 16.536 60 32 60Z" fill="white"/>
<path d="M17 58L15 60" stroke="#315488" stroke-width="2" stroke-miterlimit="10"/>
<path d="M22 53L20 55" stroke="#315488" stroke-width="2" stroke-miterlimit="10"/>
<path d="M20 58L22 60" stroke="#315488" stroke-width="2" stroke-miterlimit="10"/>
<path d="M15 53L17 55" stroke="#315488" stroke-width="2" stroke-miterlimit="10"/>
<path d="M52.5 23C54.9853 23 57 20.9853 57 18.5C57 16.0147 54.9853 14 52.5 14C50.0147 14 48 16.0147 48 18.5C48 20.9853 50.0147 23 52.5 23Z" stroke="#28282D" stroke-width="2" stroke-miterlimit="10" stroke-linecap="round" stroke-linejoin="round"/>
<path d="M46 59V32H38C35 32 33 29 33 27C34.6 27 53.2 27 55 27C59.7 27 63 28.5 63 33V42C63 44.1 61.1 46 59 46" stroke="#28282D" stroke-width="2" stroke-miterlimit="10" stroke-linecap="round" stroke-linejoin="round"/>
<path d="M52 44V59" stroke="#28282D" stroke-width="2" stroke-miterlimit="10" stroke-linecap="round" stroke-linejoin="round"/>
<path d="M58 33V59" stroke="#28282D" stroke-width="2" stroke-miterlimit="10" stroke-linecap="round" stroke-linejoin="round"/>
<path d="M40 24V19H5V43H40V35" stroke="#BF9724" stroke-width="2" stroke-miterlimit="10" stroke-linecap="round" stroke-linejoin="round"/>
<path d="M20 25.8V35.8L28.3 30.8L20 25.8Z" stroke="#28282D" stroke-width="2" stroke-miterlimit="10" stroke-linecap="round" stroke-linejoin="round"/>
<path d="M42 47H1V5H44V24" stroke="#28282D" stroke-width="2" stroke-miterlimit="10" stroke-linecap="round" stroke-linejoin="round"/>
<path d="M1 11H44" stroke="#28282D" stroke-width="2" stroke-miterlimit="10" stroke-linecap="round" stroke-linejoin="round"/>
<path opacity="0.5" d="M4 8H6" stroke="#28282D" stroke-width="2" stroke-miterlimit="10" stroke-linecap="round" stroke-linejoin="round"/>
<path opacity="0.5" d="M8 8H10" stroke="#28282D" stroke-width="2" stroke-miterlimit="10" stroke-linecap="round" stroke-linejoin="round"/>
<path opacity="0.5" d="M12 8H14" stroke="#28282D" stroke-width="2" stroke-miterlimit="10" stroke-linecap="round" stroke-linejoin="round"/>
<path opacity="0.5" d="M4 15H25" stroke="#28282D" stroke-width="2" stroke-miterlimit="10" stroke-linecap="round" stroke-linejoin="round"/>
</svg>
