<svg width="64" height="64" viewBox="0 0 64 64" fill="none" xmlns="http://www.w3.org/2000/svg">
<path d="M32 60C47.464 60 60 47.464 60 32C60 16.536 47.464 4 32 4C16.536 4 4 16.536 4 32C4 47.464 16.536 60 32 60Z" fill="white"/>
<path d="M40 7H19" stroke="#315488" stroke-width="2" stroke-miterlimit="10" stroke-linecap="round" stroke-linejoin="round"/>
<path d="M2 37H20" stroke="#315488" stroke-width="2" stroke-miterlimit="10" stroke-linecap="round" stroke-linejoin="round"/>
<path d="M15 7H13" stroke="#315488" stroke-width="2" stroke-miterlimit="10" stroke-linecap="round" stroke-linejoin="round"/>
<path d="M9 7H7" stroke="#315488" stroke-width="2" stroke-miterlimit="10" stroke-linecap="round" stroke-linejoin="round"/>
<path d="M59.9 22.9C60.1 25.9 57.9 28.5 54.9 28.7C51.9 28.9 49.3 26.7 49.1 23.7C48.9 20.7 51.1 18.1 54.1 17.9C57.1 17.7 59.7 20 59.9 22.9Z" stroke="#28282D" stroke-width="2" stroke-miterlimit="10" stroke-linecap="round" stroke-linejoin="round"/>
<path d="M8.69995 56.6L28.1 47.3" stroke="#28282D" stroke-width="2" stroke-miterlimit="10" stroke-linecap="round" stroke-linejoin="round"/>
<path d="M26.3001 40.8L7.1001 54.4" stroke="#28282D" stroke-width="2" stroke-miterlimit="10" stroke-linecap="round" stroke-linejoin="round"/>
<path d="M28.1 58L43 53.2C44.7 52.6 45.3 50.6 44.3 49.1L38.6 40.6L43.2 35.9C43.2 35.9 45.8 40 47.1 40.9H54.3C58.2 40.9 60.1 36.9 60.1 36.9L50 35.3L44.6 23.5C44.6 23.5 39.4 18.6 37.1 17.8H22C22.6 20 24.5 21.6 27.2 22L34.5 22.9L37.6 27.1L31.1 33.8L30.7 34.3C27.4 38.4 29.5 41.9 32.8 45.5L36.5 49.3L26.5 55.1" stroke="#28282D" stroke-width="2" stroke-miterlimit="10" stroke-linecap="round" stroke-linejoin="round"/>
<path d="M26.8883 27.1235L19.6238 14L9.99988 19.3273L17.2644 32.4508L26.8883 27.1235Z" stroke="#BF9724" stroke-width="2" stroke-miterlimit="10" stroke-linecap="round" stroke-linejoin="round"/>
</svg>
