<svg width="64" height="64" viewBox="0 0 64 64" fill="none" xmlns="http://www.w3.org/2000/svg">
<path d="M32 60C47.464 60 60 47.464 60 32C60 16.536 47.464 3.99998 32 3.99998C16.536 3.99998 4 16.536 4 32C4 47.464 16.536 60 32 60Z" fill="white"/>
<path d="M23.2 52L29 44H48L40 57H32" stroke="#28282D" stroke-width="2" stroke-miterlimit="10" stroke-linecap="round" stroke-linejoin="round"/>
<path d="M11 61H49" stroke="#28282D" stroke-width="2" stroke-miterlimit="10" stroke-linecap="round" stroke-linejoin="round"/>
<path d="M12.5 41C15.5376 41 18 38.5376 18 35.5C18 32.4624 15.5376 30 12.5 30C9.46243 30 7 32.4624 7 35.5C7 38.5376 9.46243 41 12.5 41Z" stroke="#28282D" stroke-width="2" stroke-miterlimit="10" stroke-linecap="round" stroke-linejoin="round"/>
<path d="M10 54L16 61C16 61 21.3 61 24 61C28 61 28 56 28 56H20L12.3 46.5C11.5 45.5 10.3 45 9 45C6 45 3.9 46.8 3.3 50.7C2.9 53.9 2 61 2 61" stroke="#28282D" stroke-width="2" stroke-miterlimit="10" stroke-linecap="round"/>
<path d="M43.5 6C32.7 6 24 12.5 24 20.5C24 23.8 25.5 26.9 28.1 29.4C27.6 31.9 26.5 34.6 25.7 37.1C25.3 38.3 26.5 39.3 27.4 39C31.4 37.8 34.4 36 36.6 34.1C38.7 34.7 41 35 43.4 35C54.2 35 62.9 28.5 62.9 20.5C63 12.5 54.3 6 43.5 6Z" stroke="#BF9724" stroke-width="2" stroke-miterlimit="10" stroke-linejoin="round"/>
<path opacity="0.5" d="M36 21H50" stroke="#28282D" stroke-width="2" stroke-miterlimit="10" stroke-linecap="round" stroke-linejoin="round"/>
<path d="M36 16H50" stroke="#28282D" stroke-width="2" stroke-miterlimit="10" stroke-linecap="round" stroke-linejoin="round"/>
<path d="M36 26H45" stroke="#28282D" stroke-width="2" stroke-miterlimit="10" stroke-linecap="round" stroke-linejoin="round"/>
<path d="M16 7L14 9" stroke="#315488" stroke-width="2" stroke-miterlimit="10"/>
<path d="M21 2L19 4" stroke="#315488" stroke-width="2" stroke-miterlimit="10"/>
<path d="M19 7L21 9" stroke="#315488" stroke-width="2" stroke-miterlimit="10"/>
<path d="M14 2L16 4" stroke="#315488" stroke-width="2" stroke-miterlimit="10"/>
<path d="M10 14V20" stroke="#315488" stroke-width="2" stroke-miterlimit="10"/>
<path d="M7 17H13" stroke="#315488" stroke-width="2" stroke-miterlimit="10"/>
</svg>
