<svg width="360" height="360" viewBox="0 0 360 360" fill="none" xmlns="http://www.w3.org/2000/svg">
<path d="M325.587 34.2918H239.873V51.4059H308.444V205.655H342.857V342.695H257.143V325.549H325.841V222.801H308.698V308.531H239.778V342.791H17.1429V188.541H0V360H359.873V188.541H325.587V34.2918ZM222.635 325.549V291.289H291.302V68.5518H222.635V34.2918H137.079V68.5518H68.5397V291.289H137.079V325.549H222.635ZM85.7143 274.144V222.801H222.762V205.624H85.7143V85.7294H154.222V51.4059H205.492V85.7294H274.19V137.104H137.079V154.186H274.19V274.144H205.492V308.435H154.222V274.144H85.7143ZM0 0V171.459H34.2857V325.613H120V308.435H51.3968V154.249H17.1429V17.1459H102.857V34.2918H34.2857V137.104H51.3968V51.3741H119.968V17.1459H342.857V171.459H360V0H0Z" fill="white"/>
<path d="M137.079 119.957H257.047V102.843H188.508V68.551H171.365V102.843H102.825V188.477H231.396V188.54H239.904V239.946H102.825V257.092H171.365V291.352H188.508V257.092H257.047V171.394H119.936V119.957H137.079Z" fill="#BF9724"/>
</svg>
