<svg width="160" height="161" viewBox="0 0 160 161" fill="none" xmlns="http://www.w3.org/2000/svg">
<path opacity="0.1" d="M144.705 15.2523H106.61V22.8585H137.086V91.4138H152.381V152.321H114.286V144.7H144.818V99.0342H137.199V137.136H106.568V152.363H7.61905V83.8076H0V160.011H159.944V83.8076H144.705V15.2523ZM98.9488 144.7V129.473H129.467V30.4789H98.9488V15.2523H60.9242V30.4789H30.4621V129.473H60.9242V144.7H98.9488ZM38.0952 121.853V99.0342H99.0053V91.3997H38.0952V38.1134H68.5432V22.8585H91.3298V38.1134H121.862V60.9464H60.9242V68.5386H121.862V121.853H91.3298V137.094H68.5432V121.853H38.0952ZM0 0.0114746V76.2154H15.2381V144.728H53.3333V137.094H22.843V68.5668H7.61905V7.63187H45.7143V15.2523H15.2381V60.9464H22.843V22.8444H53.3192V7.63187H152.381V76.2154H160V0.0114746H0Z" fill="white"/>
<path d="M60.9242 53.3256H114.243V45.7193H83.7813V30.4785H76.1623V45.7193H45.7002V83.7789H102.843V83.8071H106.624V106.654H45.7002V114.275H76.1623V129.501H83.7813V114.275H114.243V76.1868H53.3051V53.3256H60.9242Z" fill="#BF9724"/>
</svg>
