<svg width="304" height="72" viewBox="0 0 304 72" fill="none" xmlns="http://www.w3.org/2000/svg">
<g clip-path="url(#clip0)">
<path d="M24.1403 24.1403H54.4561V17.5439H39.2982V9.9649H32.7017V17.5439H17.5439V39.2982H47.8596V47.8596H17.5439V54.4561H32.7017V62.0351H39.2982V54.4561H54.4561V32.7017H24.1403V24.1403Z" fill="#BF9724"/>
<path d="M133.333 7.6L125.782 22.7368H130.526L131.509 20.4982H138.526L139.537 22.7368H144.449L137.004 7.6H133.333ZM132.961 17.4246L135.011 12.793H135.172L137.221 17.4246H132.961ZM87.1579 22.7368H91.6632V16.793H97.2772V13.3333H91.6632V11.2281H100.961V7.6H87.1579V22.7368ZM111.628 16.793H117.277V13.3333H111.628V11.2281H121.032V7.6H107.123V22.7368H121.565V19.1158H111.628V16.793ZM241.972 13.1158C240.288 12.9825 238.463 12.8772 238.463 11.9158C238.463 11.0667 239.558 10.6105 240.807 10.6105C242.696 10.6479 244.553 11.1032 246.246 11.9439L248.674 8.90526C246.244 7.7394 243.586 7.13045 240.891 7.1228C237.747 7.1228 233.958 8.34386 233.958 12.1333C233.958 16.2105 238.281 16.7158 241.796 16.9263C243.712 17.0316 245.151 17.2702 245.151 18.1263C245.151 19.1368 243.825 19.7544 242.225 19.7544C239.85 19.6674 237.551 18.9001 235.6 17.5439L233.2 20.4982C235.849 22.2946 238.982 23.2441 242.182 23.221C246.26 23.221 249.642 21.6982 249.642 17.8316C249.642 13.7053 244.954 13.3333 241.972 13.1158ZM165.614 12.5544C165.614 11.9544 165.494 11.3605 165.261 10.8074C165.029 10.2544 164.688 9.75322 164.26 9.33333C163.214 8.29473 161.67 7.6 159.137 7.6H150.119V22.7368H154.625V17.5439H158.274L161.312 22.7649H166.4L162.695 16.7719C164.512 15.8316 165.614 14.3719 165.614 12.5544ZM160.702 13.593C160.345 13.8963 159.885 14.0498 159.418 14.021H154.653V11.0877H159.418C159.661 11.0741 159.905 11.11 160.134 11.1932C160.363 11.2765 160.573 11.4053 160.751 11.5719C160.884 11.7061 160.988 11.8657 161.057 12.0411C161.127 12.2166 161.161 12.4042 161.156 12.5929C161.151 12.7816 161.109 12.9674 161.031 13.1392C160.953 13.3111 160.841 13.4654 160.702 13.593ZM197.004 16.793H202.653V13.3333H197.004V11.2281H206.386V7.6H192.47V22.7368H206.919V19.1158H196.975L197.004 16.793ZM220.596 13.1158C218.912 12.9825 217.088 12.8772 217.088 11.9158C217.088 11.0667 218.182 10.6105 219.432 10.6105C221.321 10.6479 223.178 11.1032 224.87 11.9439L227.298 8.90526C224.869 7.7394 222.21 7.13045 219.516 7.1228C216.372 7.1228 212.582 8.34386 212.582 12.1333C212.582 16.2105 216.905 16.7158 220.421 16.9263C222.337 17.0316 223.775 17.2702 223.775 18.1263C223.775 19.1368 222.449 19.7544 220.849 19.7544C218.465 19.6728 216.155 18.9052 214.196 17.5439L211.796 20.4982C214.446 22.2946 217.578 23.2441 220.779 23.221C224.856 23.221 228.239 21.6982 228.239 17.8316C228.239 13.7053 223.551 13.3333 220.568 13.1158H220.596ZM177.333 7.6H172.828V22.7368H186.337V19.1158H177.333V7.6Z" fill="#BF9724"/>
<path d="M144.814 41.4947H134.695V28.4281H132.344V43.5719H144.814V41.4947ZM94.6596 34.386C92.0982 34.2175 89.5018 34.1404 89.5018 32.3649C89.5018 30.5895 91.4947 29.993 93.5439 29.993C95.6974 29.9022 97.8194 30.5346 99.5719 31.7895L101.053 30.1754C98.8711 28.6965 96.2916 27.9158 93.6561 27.9368C90.7368 27.9368 87.193 29.0246 87.193 32.5754C87.193 36.1263 91.1789 36.393 94.6947 36.6386C97.5018 36.8281 99.7404 37.186 99.7404 39.2842C99.7404 41.1439 97.586 41.986 94.9684 41.986C92.2919 41.9922 89.7112 40.99 87.7403 39.179L86.3368 40.814C88.7036 42.9058 91.7682 44.035 94.9263 43.979C98.8 43.979 102.133 42.5333 102.133 38.9333C102.084 34.8421 97.5439 34.5684 94.6596 34.386ZM164.435 43.5509H167.018L159.502 28.4281H157.312L149.811 43.5719H152.239L154.344 39.2632H162.309L164.435 43.5509ZM155.242 37.3825L158.274 31.193H158.407L161.404 37.4035L155.242 37.3825ZM115.319 28.4281L107.818 43.5719H110.246L112.351 39.2632H120.316L122.421 43.5719H124.982L117.502 28.4281H115.319ZM113.214 37.4035L116.246 31.214H116.379L119.382 37.4035H113.214ZM186.667 43.5719H189.34L185.439 37.2561C187.642 36.7368 189.144 35.1509 189.144 33.0456C189.134 31.9325 188.694 30.8665 187.916 30.0702C186.933 29.0877 185.572 28.4632 183.228 28.4632H174.344V43.5719H176.688V37.593H183.004L186.667 43.5719ZM176.688 30.5263H183.214C184.519 30.5263 185.396 30.6947 186.161 31.4877C186.553 31.8991 186.776 32.4426 186.786 33.0105C186.786 34.414 185.502 35.5228 183.733 35.5228H176.716L176.688 30.5263ZM208.042 28.4211L203.13 34.4491L198.168 28.4211H195.221L201.825 36.5614V43.5789H204.14V36.5614L210.8 28.4281L208.042 28.4211ZM272.246 48.7719C267.333 48.7719 263.46 52.3719 263.46 56.793C263.46 61.214 267.368 64.8632 272.281 64.8632C277.193 64.8632 281.151 61.2842 281.151 56.814C281.151 52.3439 277.193 48.793 272.281 48.793L272.246 48.7719ZM272.246 62.7649C271.438 62.8041 270.631 62.6789 269.873 62.3968C269.115 62.1147 268.422 61.6817 267.837 61.1239C267.252 60.5662 266.785 59.8953 266.467 59.1521C266.148 58.4088 265.984 57.6086 265.984 56.8C265.984 55.9914 266.148 55.1912 266.467 54.4479C266.785 53.7047 267.252 53.0338 267.837 52.4761C268.422 51.9183 269.115 51.4853 269.873 51.2032C270.631 50.9211 271.438 50.7959 272.246 50.8351C275.818 50.8351 278.66 53.5088 278.66 56.786C278.66 60.0632 275.789 62.786 272.281 62.786L272.246 62.7649ZM252.87 64.3719H255.221V49.2561H252.87V64.3719ZM113.6 57.4947H120.091V55.4386H113.6V51.3544H124.295V49.2491H111.249V64.393H124.863V62.2877H113.6V57.4947ZM99.2702 60.6316L89.2842 49.2561H87.1789V64.393H89.5228V53.0176L99.5088 64.393H101.614V49.2561H99.2632L99.2702 60.6316ZM301.418 49.2561V60.6316L291.432 49.2561H289.326V64.393H291.67V53.0176L301.656 64.393H303.761V49.2561H301.418ZM139.796 58.1193H145.004V61.4246C143.472 62.3427 141.715 62.8142 139.93 62.786C135.719 62.786 133.27 59.8947 133.27 56.8351C133.27 53.593 135.972 50.8632 139.712 50.8632C141.784 50.875 143.788 51.5984 145.389 52.9123L146.996 51.4667C144.93 49.776 142.353 48.8338 139.684 48.793C134.772 48.793 130.842 52.393 130.842 56.8351C130.842 61.2772 134.695 64.8632 139.796 64.8632C142.417 64.8333 144.97 64.0247 147.13 62.5404V56.0211H139.796V58.1193ZM200 64.393H202.344V49.2561H200V64.393ZM230.533 51.3544H236.849V64.393H239.165V51.3544H245.481V49.2491H230.533V51.3544ZM163.242 48.793C158.33 48.793 154.456 52.393 154.456 56.814C154.456 61.2351 158.33 64.8632 163.242 64.8632C168.154 64.8632 172.105 61.2842 172.105 56.814C172.105 52.3439 168.196 48.793 163.263 48.793H163.242ZM163.242 62.786C162.434 62.8252 161.627 62.6999 160.869 62.4178C160.112 62.1358 159.419 61.7027 158.833 61.145C158.248 60.5872 157.782 59.9164 157.463 59.1731C157.145 58.4299 156.981 57.6297 156.981 56.8211C156.981 56.0124 157.145 55.2123 157.463 54.469C157.782 53.7257 158.248 53.0549 158.833 52.4972C159.419 51.9394 160.112 51.5064 160.869 51.2243C161.627 50.9422 162.434 50.817 163.242 50.8561C166.814 50.8561 169.649 53.5298 169.649 56.807C169.649 60.0842 166.835 62.786 163.263 62.786H163.242ZM177.677 51.3544H183.993V64.393H186.309V51.3544H192.625V49.2491H177.677V51.3544ZM217.214 49.2491L209.733 64.393H212.161L214.267 60.0842H222.232L224.337 64.393H226.898L219.418 49.2561L217.214 49.2491ZM215.165 58.2456L218.189 52.0491H218.323L221.326 58.2456H215.165Z" fill="#28282D"/>
<path d="M64.4211 7.57895H45.4737V11.3684H60.6316V41.6842H68.2105V68.2105H49.2632V64.4211H64.4211V45.4737H60.6316V60.6316H45.4737V68.2105H3.78947V37.8947H0V72H72V37.8947H64.4211V7.57895ZM41.6842 64.4211V56.8421H56.8421V30.3158H26.5263V26.5263H56.8421V15.1579H41.6842V7.57895H30.3158V15.1579H15.1579V41.6842H45.4737V45.4737H15.1579V56.8421H30.3158V64.4211H41.6842ZM18.9474 53.0526V49.2632H49.2632V37.8947H18.9474V18.9474H34.1053V11.3684H37.8947V18.9474H53.0526V22.7368H22.7368V34.1053H53.0526V53.0526H37.8947V60.6316H34.1053V53.0526H18.9474ZM0 0V34.1053H7.57895V64.4211H26.5263V60.6316H11.3684V30.3158H3.78947V3.78947H22.7368V7.57895H7.57895V26.5263H11.3684V11.3684H26.5263V3.78947H68.2105V34.1053H72V0H0Z" fill="#28282D"/>
</g>
<defs>
<clipPath id="clip0">
<rect width="303.761" height="72" fill="white"/>
</clipPath>
</defs>
</svg>
