<svg width="104" height="104" viewBox="0 0 104 104" fill="none" xmlns="http://www.w3.org/2000/svg">
<path d="M51.9999 97.5C77.1289 97.5 97.4999 77.1289 97.4999 52C97.4999 26.871 77.1289 6.49999 51.9999 6.49999C26.871 6.49999 6.49991 26.871 6.49991 52C6.49991 77.1289 26.871 97.5 51.9999 97.5Z" fill="white"/>
<path d="M8.125 13V22.75" stroke="#395382" stroke-width="2" stroke-miterlimit="10"/>
<path d="M3.25 17.875H13" stroke="#395382" stroke-width="2" stroke-miterlimit="10"/>
<path d="M76.375 92.625L73.125 95.875" stroke="#395382" stroke-width="2" stroke-miterlimit="10"/>
<path d="M84.5 84.5L81.25 87.75" stroke="#395382" stroke-width="2" stroke-miterlimit="10"/>
<path d="M81.25 92.625L84.5 95.875" stroke="#395382" stroke-width="2" stroke-miterlimit="10"/>
<path d="M73.125 84.5L76.375 87.75" stroke="#395382" stroke-width="2" stroke-miterlimit="10"/>
<path d="M89.8218 55.1084L82.9338 59.356C80.4868 60.8819 77.7619 61.9083 74.9162 62.376C72.0706 62.8437 69.1605 62.7434 66.3538 62.081C63.5471 61.4186 60.8993 60.2071 58.5631 58.5164C56.2268 56.8257 54.2484 54.6892 52.7419 52.2302C51.2353 49.7712 50.2305 47.0383 49.7852 44.189C49.34 41.3398 49.4632 38.4306 50.1478 35.6292C50.8324 32.8278 52.0647 30.1896 53.7738 27.8668C55.4829 25.544 57.6349 23.5825 60.1057 22.0954L66.9937 17.8431C69.4405 16.3442 72.1587 15.3419 74.9929 14.8935C77.8271 14.445 80.7219 14.5592 83.512 15.2295C86.3021 15.8999 88.9329 17.1131 91.2541 18.8002C93.5753 20.4872 95.5414 22.6148 97.0404 25.0617C98.5393 27.5086 99.5416 30.2267 99.99 33.061C100.438 35.8952 100.324 38.79 99.6539 41.5801C98.9836 44.3702 97.7704 47.0009 96.0833 49.3221C94.3963 51.6433 92.2687 53.6095 89.8218 55.1084V55.1084ZM65.1779 30.3697C62.473 32.0698 60.5476 34.768 59.8195 37.8788C59.0914 40.9896 59.6193 44.262 61.2888 46.986C62.9582 49.71 65.6344 51.6659 68.7368 52.4291C71.8391 53.1924 75.1173 52.7016 77.86 51.0631L84.748 46.8155C86.1261 45.9922 87.3272 44.9037 88.2817 43.6131C89.2362 42.3224 89.9251 40.8551 90.3087 39.2963C90.6922 37.7375 90.7626 36.1181 90.5159 34.5319C90.2692 32.9457 89.7103 31.4242 88.8715 30.0555C88.0327 28.6868 86.9306 27.4981 85.6292 26.5583C84.3278 25.6185 82.8529 24.9462 81.2899 24.5803C79.7268 24.2145 78.1067 24.1624 76.5234 24.427C74.9401 24.6917 73.425 25.2678 72.0659 26.1221L65.1779 30.3697Z" stroke="#28282D" stroke-width="2" stroke-miterlimit="10" stroke-linecap="round" stroke-linejoin="round"/>
<path d="M44.9341 82.7984L38.0461 87.046C33.1061 90.0389 27.182 90.954 21.5692 89.5912C15.9564 88.2283 11.1115 84.6985 8.09399 79.7736C5.07645 74.8486 4.13174 68.9292 5.46643 63.3096C6.80113 57.69 10.3066 52.8276 15.2164 49.7854L22.1044 45.5378C24.5513 44.0217 27.2736 43.004 30.115 42.5433C32.9564 42.0825 35.8609 42.1877 38.6615 42.8529C41.4621 43.5181 44.1037 44.7301 46.4344 46.4193C48.7652 48.1085 50.7392 50.2416 52.243 52.696C53.7469 55.1504 54.7509 57.8779 55.1975 60.7215C55.644 63.5652 55.5242 66.4691 54.8451 69.2663C54.1659 72.0636 52.9407 74.699 51.2398 77.0213C49.539 79.3436 47.396 81.3069 44.9341 82.7984ZM20.2902 58.0597C17.5732 59.7544 15.6361 62.4543 14.9011 65.571C14.166 68.6877 14.6926 71.9686 16.366 74.6988C18.0394 77.429 20.724 79.3871 23.8349 80.1466C26.9458 80.906 30.2307 80.4051 32.9739 78.7531L39.8619 74.5055C41.234 73.6792 42.4289 72.5894 43.3779 71.2991C44.3268 70.0087 45.0109 68.5433 45.3908 66.9873C45.7706 65.4313 45.8387 63.8154 45.5911 62.233C45.3435 60.6505 44.785 59.1327 43.948 57.7671C43.111 56.4015 42.0119 55.2151 40.7142 54.2763C39.4164 53.3375 37.9457 52.6649 36.3867 52.2972C34.8278 51.9296 33.2115 51.8741 31.631 52.1341C30.0506 52.3941 28.5372 52.9644 27.1782 53.8121L20.2902 58.0597Z" stroke="#28282D" stroke-width="2" stroke-miterlimit="10" stroke-linecap="round" stroke-linejoin="round"/>
<path d="M73.6573 45.2598L36.3967 68.0879C35.2995 68.7346 33.9922 68.9243 32.7565 68.6163C31.5207 68.3082 30.4554 67.527 29.7902 66.441C29.125 65.355 28.913 64.0511 29.2 62.8103C29.487 61.5694 30.2499 60.491 31.3245 59.8074L68.5835 36.9808C69.6811 36.3249 70.993 36.1283 72.2346 36.4337C73.4761 36.7391 74.5472 37.5219 75.2152 38.6121C75.8832 39.7023 76.0943 41.012 75.8026 42.2568C75.5109 43.5017 74.7401 44.5813 73.6573 45.2613V45.2598Z" fill="white" stroke="#BF9724" stroke-width="2" stroke-miterlimit="10" stroke-linecap="round" stroke-linejoin="round"/>
</svg>
