<svg width="64" height="64" viewBox="0 0 64 64" fill="none" xmlns="http://www.w3.org/2000/svg">
<path d="M32 60C47.464 60 60 47.464 60 32C60 16.536 47.464 3.99999 32 3.99999C16.536 3.99999 4 16.536 4 32C4 47.464 16.536 60 32 60Z" fill="white"/>
<path d="M40.4 19.8L37.9 13.7L34.1 15C33.1 13.6 31.8 12.3 30.4 11.3L31.6 7.6L25.6 5L23.8 8.5C22.1 8.2 20.3 8.2 18.6 8.5L16.8 5L10.7 7.5L12 11.3C10.6 12.3 9.3 13.6 8.3 15L4.5 13.7L2 19.8L5.5 21.6C5.2 23.3 5.2 25.1 5.5 26.8L2 28.6L4.5 34.7L8.2 33.5C9.2 34.9 10.5 36.2 11.9 37.2L10.7 40.9L16.8 43.4L18.6 39.9C20.3 40.2 22.1 40.2 23.8 39.9L25.6 43.4L31.7 40.9L30.5 37.2C31.9 36.2 33.2 34.9 34.2 33.5L37.9 34.7L40.4 28.6L36.9 26.8C37.2 25.1 37.2 23.3 36.9 21.6L40.4 19.8Z" stroke="#BF9724" stroke-width="2" stroke-miterlimit="10" stroke-linejoin="round"/>
<path d="M27.1 26.6C25.8 29.8 22 31.4 18.8 30C15.6 28.7 14 24.9 15.4 21.7C16.7 18.5 20.5 16.9 23.7 18.3C26.9 19.7 28.4 23.4 27.1 26.6Z" fill="white" stroke="#BF9724" stroke-width="2" stroke-miterlimit="10"/>
<path opacity="0.5" d="M45.3999 22.7C46.2999 20.5 48.8999 19.4 51.0999 20.3C53.2999 21.2 54.3999 23.8 53.4999 26C53.0999 26.9 52.3999 27.7 51.5999 28.1" stroke="#28282D" stroke-width="2" stroke-miterlimit="10" stroke-linejoin="round"/>
<path d="M61.8001 43.9L60.0001 39.7L56.8001 41C56.1001 40.1 55.4001 39.3 54.5001 38.7L55.8001 35.5L51.6001 33.8L50.3001 37C49.2001 36.8 48.1001 36.8 47.0001 37L45.7001 33.8L41.5001 35.5L42.8001 38.7C41.9001 39.4 41.1001 40.1 40.5001 41L37.3001 39.7L35.6001 43.9L38.8001 45.2C38.6001 46.3 38.6001 47.4 38.8001 48.5L35.6001 49.8L37.3001 54L40.5001 52.7C41.2001 53.6 41.9001 54.4 42.8001 55L41.5001 58.2L45.7001 59.9L47.0001 56.7C48.1001 56.9 49.2001 56.9 50.3001 56.7L51.6001 59.9L55.8001 58.2L54.5001 55C55.4001 54.3 56.2001 53.6 56.8001 52.7L60.0001 54L61.7001 49.8L58.5001 48.5C58.7001 47.4 58.7001 46.3 58.5001 45.2L61.8001 43.9Z" stroke="#28282D" stroke-width="2" stroke-miterlimit="10" stroke-linejoin="round"/>
<path opacity="0.5" d="M57.0999 30.5L60.2 32L62.2 28L59.0999 26.5C59.2999 25.5 59.3999 24.4 59.2999 23.3L62.5999 22.2L61.0999 18L57.7999 19C57.1999 18.1 56.5 17.3 55.7 16.6L57.2 13.5L53.2 11.5L51.7 14.6C50.7 14.4 49.6 14.3 48.5 14.4L47.4 11.1L43.2 12.6L44.2999 15.9" stroke="#28282D" stroke-width="2" stroke-miterlimit="10" stroke-linejoin="round"/>
<path d="M52.7001 45.2C53.6001 47.4 52.6001 50 50.3001 51C48.1001 51.9 45.5001 50.9 44.5001 48.6C43.6001 46.4 44.6001 43.8 46.9001 42.8C49.2001 41.8 51.8001 42.9 52.7001 45.2Z" fill="white" stroke="#28282D" stroke-width="2" stroke-miterlimit="10"/>
<path d="M19 58L17 60" stroke="#315488" stroke-width="2" stroke-miterlimit="10"/>
<path d="M24 53L22 55" stroke="#315488" stroke-width="2" stroke-miterlimit="10"/>
<path d="M22 58L24 60" stroke="#315488" stroke-width="2" stroke-miterlimit="10"/>
<path d="M17 53L19 55" stroke="#315488" stroke-width="2" stroke-miterlimit="10"/>
<path d="M41 3V9" stroke="#315488" stroke-width="2" stroke-miterlimit="10"/>
<path d="M38 6H44" stroke="#315488" stroke-width="2" stroke-miterlimit="10"/>
</svg>
