<svg width="65" height="64" viewBox="0 0 65 64" fill="none" xmlns="http://www.w3.org/2000/svg">
<g clip-path="url(#clip0)">
<path d="M32.5 60C47.964 60 60.5 47.464 60.5 32C60.5 16.536 47.964 4 32.5 4C17.036 4 4.5 16.536 4.5 32C4.5 47.464 17.036 60 32.5 60Z" fill="white" fill-opacity="0.1"/>
<path d="M22.5 60L20.5 62" stroke="#315488" stroke-width="2" stroke-miterlimit="10"/>
<path d="M27.5 55L25.5 57" stroke="#315488" stroke-width="2" stroke-miterlimit="10"/>
<path d="M25.5 60L27.5 62" stroke="#315488" stroke-width="2" stroke-miterlimit="10"/>
<path d="M20.5 55L22.5 57" stroke="#315488" stroke-width="2" stroke-miterlimit="10"/>
<path d="M36.5 1V7" stroke="#315488" stroke-width="2" stroke-miterlimit="10"/>
<path d="M33.5 4H39.5" stroke="#315488" stroke-width="2" stroke-miterlimit="10"/>
<path d="M55.5 12.8999H60.5V44.8999" stroke="#BF9724" stroke-width="2" stroke-miterlimit="10" stroke-linecap="round" stroke-linejoin="round"/>
<path d="M45.5 48.8999H37.5L35.5 50.8999H27.5L25.5 48.8999H2.5V12.8999H7.5" stroke="#BF9724" stroke-width="2" stroke-miterlimit="10" stroke-linecap="round" stroke-linejoin="round"/>
<path d="M45.5 44.8999H37.5C35.6 44.8999 34.3 45.3999 33.5 46.8999H31.5V15.8999C31.5 12.6999 33.5 9.8999 37.5 9.8999H55.5V41.1999" stroke="white" stroke-width="2" stroke-miterlimit="10" stroke-linecap="round" stroke-linejoin="round"/>
<path d="M12.5 9.8999H7.5V44.8999H25.5C27.4 44.8999 28.7 45.3999 29.5 46.8999" stroke="white" stroke-width="2" stroke-miterlimit="10" stroke-linecap="round" stroke-linejoin="round"/>
<path d="M63.3 46.8999L45.5 33.8999V55.7999C45.5 56.4999 46 56.6999 46.6 56.1999L51.6 51.3999L56.4 59.8999C56.8 60.5999 57.8 60.6999 58.5 60.1999L60.5 58.8999C61.3 58.3999 61.5 57.4999 61.2 56.8999L56.6 48.8999H62.6C63.3 48.7999 63.8 47.2999 63.3 46.8999Z" stroke="white" stroke-width="2" stroke-miterlimit="10" stroke-linecap="round" stroke-linejoin="round"/>
<path opacity="0.5" d="M44.5 28.8999V24.8999" stroke="white" stroke-width="2" stroke-miterlimit="10" stroke-linecap="round" stroke-linejoin="round"/>
<path opacity="0.5" d="M41.8 29.2001L40 26.1001" stroke="white" stroke-width="2" stroke-miterlimit="10" stroke-linecap="round" stroke-linejoin="round"/>
<path opacity="0.5" d="M39.8002 31.1999L36.7002 29.3999" stroke="white" stroke-width="2" stroke-miterlimit="10" stroke-linecap="round" stroke-linejoin="round"/>
<path opacity="0.5" d="M39.5 33.8999H35.5" stroke="white" stroke-width="2" stroke-miterlimit="10" stroke-linecap="round" stroke-linejoin="round"/>
<path opacity="0.5" d="M47.2002 29.2001L49.0002 26.1001" stroke="white" stroke-width="2" stroke-miterlimit="10" stroke-linecap="round" stroke-linejoin="round"/>
<path opacity="0.5" d="M39.8002 36.7L36.7002 38.4" stroke="white" stroke-width="2" stroke-miterlimit="10" stroke-linecap="round" stroke-linejoin="round"/>
<path d="M29.5 46.9H31.5V15.9C31.5 12.7 30.1 9.4 26.9 8.3L12.5 4V39L26.9 43.3C28.7 44 29.1 45.3 29.5 46.9Z" stroke="white" stroke-width="2" stroke-miterlimit="10" stroke-linecap="round" stroke-linejoin="round"/>
</g>
<defs>
<clipPath id="clip0">
<rect width="64" height="64" fill="white" transform="translate(0.5)"/>
</clipPath>
</defs>
</svg>
