<svg width="64" height="64" viewBox="0 0 64 64" fill="none" xmlns="http://www.w3.org/2000/svg">
<path d="M32 60C47.464 60 60 47.464 60 32C60 16.536 47.464 4 32 4C16.536 4 4 16.536 4 32C4 47.464 16.536 60 32 60Z" fill="white"/>
<path d="M22 61V52H35V40H48V28H60" stroke="#BF9724" stroke-width="2" stroke-miterlimit="10" stroke-linecap="round" stroke-linejoin="round"/>
<path d="M29.0001 47L27.7001 36.4L19.0001 30V19C19.0001 16.7 17.4001 16.2 15.3001 15.2C13.3001 14.2 11.3001 14 9.1001 15.2C6.9001 16.4 5.4001 17.7 5.4001 17.7C4.5001 18.4 4.1001 19.6 4.1001 20.7V29" stroke="#28282D" stroke-width="2" stroke-miterlimit="10" stroke-linecap="round" stroke-linejoin="round"/>
<path d="M9 55L15.9 36.9" stroke="#28282D" stroke-width="2" stroke-miterlimit="10" stroke-linecap="round" stroke-linejoin="round"/>
<path d="M11 34.3L4 55" stroke="#28282D" stroke-width="2" stroke-miterlimit="10" stroke-linecap="round" stroke-linejoin="round"/>
<path d="M17.5 12C19.9853 12 22 9.98528 22 7.5C22 5.01472 19.9853 3 17.5 3C15.0147 3 13 5.01472 13 7.5C13 9.98528 15.0147 12 17.5 12Z" stroke="#28282D" stroke-width="2" stroke-miterlimit="10" stroke-linecap="round" stroke-linejoin="round"/>
<path d="M19 24L26 28" stroke="#28282D" stroke-width="2" stroke-miterlimit="10" stroke-linecap="round" stroke-linejoin="round"/>
<path d="M10 20V30.7C10 32.7 10.6 34.8 12.7 35.7L22.3 39.4L24 47" stroke="#28282D" stroke-width="2" stroke-miterlimit="10" stroke-linecap="round" stroke-linejoin="round"/>
<path d="M52 49V55" stroke="#315488" stroke-width="2" stroke-miterlimit="10"/>
<path d="M49 52H55" stroke="#315488" stroke-width="2" stroke-miterlimit="10"/>
<path d="M45 10L43 12" stroke="#315488" stroke-width="2" stroke-miterlimit="10"/>
<path d="M50 5L48 7" stroke="#315488" stroke-width="2" stroke-miterlimit="10"/>
<path d="M48 10L50 12" stroke="#315488" stroke-width="2" stroke-miterlimit="10"/>
<path d="M43 5L45 7" stroke="#315488" stroke-width="2" stroke-miterlimit="10"/>
</svg>
