<svg width="64" height="64" viewBox="0 0 64 64" fill="none" xmlns="http://www.w3.org/2000/svg">
<g clip-path="url(#clip0)">
<path d="M32 60C47.464 60 60 47.464 60 32C60 16.536 47.464 4 32 4C16.536 4 4 16.536 4 32C4 47.464 16.536 60 32 60Z" fill="white"/>
<path d="M22 60L20 62" stroke="#315488" stroke-width="2" stroke-miterlimit="10"/>
<path d="M27 55L25 57" stroke="#315488" stroke-width="2" stroke-miterlimit="10"/>
<path d="M25 60L27 62" stroke="#315488" stroke-width="2" stroke-miterlimit="10"/>
<path d="M20 55L22 57" stroke="#315488" stroke-width="2" stroke-miterlimit="10"/>
<path d="M36 1V7" stroke="#315488" stroke-width="2" stroke-miterlimit="10"/>
<path d="M33 4H39" stroke="#315488" stroke-width="2" stroke-miterlimit="10"/>
<path d="M55 12.9H60V44.9" stroke="#BF9724" stroke-width="2" stroke-miterlimit="10" stroke-linecap="round" stroke-linejoin="round"/>
<path d="M45 48.9H37L35 50.9H27L25 48.9H2V12.9H7" stroke="#BF9724" stroke-width="2" stroke-miterlimit="10" stroke-linecap="round" stroke-linejoin="round"/>
<path d="M45 44.9H37C35.1 44.9 33.8 45.4 33 46.9H31V15.9C31 12.7 33 9.90002 37 9.90002H55V41.2" stroke="#28282D" stroke-width="2" stroke-miterlimit="10" stroke-linecap="round" stroke-linejoin="round"/>
<path d="M12 9.90002H7V44.9H25C26.9 44.9 28.2 45.4 29 46.9" stroke="#28282D" stroke-width="2" stroke-miterlimit="10" stroke-linecap="round" stroke-linejoin="round"/>
<path d="M62.8 46.9L45 33.9V55.8C45 56.5 45.5 56.7 46.1 56.2L51.1 51.4L55.9 59.9C56.3 60.6 57.3 60.7 58 60.2L60 58.9C60.8 58.4 61 57.5 60.7 56.9L56.1 48.9H62.1C62.8 48.8 63.3 47.3 62.8 46.9Z" stroke="#28282D" stroke-width="2" stroke-miterlimit="10" stroke-linecap="round" stroke-linejoin="round"/>
<path opacity="0.5" d="M44 28.9V24.9" stroke="#28282D" stroke-width="2" stroke-miterlimit="10" stroke-linecap="round" stroke-linejoin="round"/>
<path opacity="0.5" d="M41.3 29.2L39.5 26.1" stroke="#28282D" stroke-width="2" stroke-miterlimit="10" stroke-linecap="round" stroke-linejoin="round"/>
<path opacity="0.5" d="M39.2999 31.2L36.2 29.4" stroke="#28282D" stroke-width="2" stroke-miterlimit="10" stroke-linecap="round" stroke-linejoin="round"/>
<path opacity="0.5" d="M39 33.9H35" stroke="#28282D" stroke-width="2" stroke-miterlimit="10" stroke-linecap="round" stroke-linejoin="round"/>
<path opacity="0.5" d="M46.7 29.2L48.5 26.1" stroke="#28282D" stroke-width="2" stroke-miterlimit="10" stroke-linecap="round" stroke-linejoin="round"/>
<path opacity="0.5" d="M39.2999 36.7L36.2 38.4" stroke="#28282D" stroke-width="2" stroke-miterlimit="10" stroke-linecap="round" stroke-linejoin="round"/>
<path d="M29 46.9H31V15.9C31 12.7 29.6 9.4 26.4 8.3L12 4V39L26.4 43.3C28.2 44 28.6 45.3 29 46.9Z" stroke="#28282D" stroke-width="2" stroke-miterlimit="10" stroke-linecap="round" stroke-linejoin="round"/>
</g>
<defs>
<clipPath id="clip0">
<rect width="64" height="64" fill="white"/>
</clipPath>
</defs>
</svg>
