<svg width="65" height="64" viewBox="0 0 65 64" fill="none" xmlns="http://www.w3.org/2000/svg">
<path d="M32.5 60C47.964 60 60.5 47.464 60.5 32C60.5 16.536 47.964 4 32.5 4C17.036 4 4.5 16.536 4.5 32C4.5 47.464 17.036 60 32.5 60Z" fill="white" fill-opacity="0.1"/>
<path d="M40.5 7H19.5" stroke="#315488" stroke-width="2" stroke-miterlimit="10" stroke-linecap="round" stroke-linejoin="round"/>
<path d="M2.5 37H20.5" stroke="#315488" stroke-width="2" stroke-miterlimit="10" stroke-linecap="round" stroke-linejoin="round"/>
<path d="M15.5 7H13.5" stroke="#315488" stroke-width="2" stroke-miterlimit="10" stroke-linecap="round" stroke-linejoin="round"/>
<path d="M9.5 7H7.5" stroke="#315488" stroke-width="2" stroke-miterlimit="10" stroke-linecap="round" stroke-linejoin="round"/>
<path d="M60.4 22.9001C60.6 25.9001 58.4 28.5001 55.4 28.7001C52.4 28.9001 49.8 26.7001 49.6 23.7001C49.4 20.7001 51.6 18.1001 54.6 17.9001C57.6 17.7001 60.2 20.0001 60.4 22.9001Z" stroke="white" stroke-width="2" stroke-miterlimit="10" stroke-linecap="round" stroke-linejoin="round"/>
<path d="M9.2002 56.6L28.6002 47.3" stroke="white" stroke-width="2" stroke-miterlimit="10" stroke-linecap="round" stroke-linejoin="round"/>
<path d="M26.8001 40.8L7.6001 54.4001" stroke="white" stroke-width="2" stroke-miterlimit="10" stroke-linecap="round" stroke-linejoin="round"/>
<path d="M28.6 58L43.5 53.2001C45.2 52.6001 45.8 50.6 44.8 49.1L39.1 40.6L43.7 35.9C43.7 35.9 46.3 40.0001 47.6 40.9001H54.8C58.7 40.9001 60.6 36.9 60.6 36.9L50.5 35.3L45.1 23.5C45.1 23.5 39.9 18.6 37.6 17.8H22.5C23.1 20 25 21.6 27.7 22L35 22.9L38.1 27.1L31.6 33.8L31.2 34.3C27.9 38.4 30 41.9 33.3 45.5L37 49.3L27 55.1" stroke="white" stroke-width="2" stroke-miterlimit="10" stroke-linecap="round" stroke-linejoin="round"/>
<path d="M27.3885 27.1235L20.124 14L10.5001 19.3273L17.7646 32.4508L27.3885 27.1235Z" stroke="#BF9724" stroke-width="2" stroke-miterlimit="10" stroke-linecap="round" stroke-linejoin="round"/>
</svg>
