<svg width="64" height="64" viewBox="0 0 64 64" fill="none" xmlns="http://www.w3.org/2000/svg">
<path d="M32 60C47.464 60 60 47.464 60 32C60 16.536 47.464 4 32 4C16.536 4 4 16.536 4 32C4 47.464 16.536 60 32 60Z" fill="white"/>
<path d="M55 14V20" stroke="#315488" stroke-width="2" stroke-miterlimit="10"/>
<path d="M52 17H58" stroke="#315488" stroke-width="2" stroke-miterlimit="10"/>
<path d="M3 36L1 38" stroke="#315488" stroke-width="2" stroke-miterlimit="10"/>
<path d="M8 31L6 33" stroke="#315488" stroke-width="2" stroke-miterlimit="10"/>
<path d="M6 36L8 38" stroke="#315488" stroke-width="2" stroke-miterlimit="10"/>
<path d="M1 31L3 33" stroke="#315488" stroke-width="2" stroke-miterlimit="10"/>
<path d="M32 12C34.2091 12 36 10.2091 36 8C36 5.79086 34.2091 4 32 4C29.7909 4 28 5.79086 28 8C28 10.2091 29.7909 12 32 12Z" stroke="#28282D" stroke-width="2" stroke-miterlimit="10" stroke-linecap="round" stroke-linejoin="round"/>
<path d="M38.0001 48V22.4L47.5001 10.9C49.4001 8.8 49.5001 5.7 47.7001 3.5L36.2001 15.7C35.4001 16.5 34.4001 16.9 33.3001 16.9H30.7001C29.6001 16.9 28.6001 16.5 27.8001 15.7L16.0001 3.5C14.3001 5.7 14.3001 8.8 16.2001 10.9L26.0001 22.4V48" stroke="#28282D" stroke-width="2" stroke-miterlimit="10" stroke-linecap="round"/>
<path d="M32 32V48" stroke="#28282D" stroke-width="2" stroke-miterlimit="10" stroke-linecap="round"/>
<path d="M42 63V52H62V63" stroke="#28282D" stroke-width="2" stroke-miterlimit="10" stroke-linecap="round"/>
<path opacity="0.5" d="M2 63V56H22V63" stroke="#28282D" stroke-width="2" stroke-miterlimit="10" stroke-linecap="round"/>
<path d="M22 63V48H42V63" stroke="#BF9724" stroke-width="2" stroke-miterlimit="10" stroke-linecap="round"/>
</svg>
