<svg width="64" height="64" viewBox="0 0 64 64" fill="none" xmlns="http://www.w3.org/2000/svg">
<path d="M32 60C47.464 60 60 47.464 60 32C60 16.536 47.464 4 32 4C16.536 4 4 16.536 4 32C4 47.464 16.536 60 32 60Z" fill="white"/>
<path d="M51 9L49 11" stroke="#315488" stroke-width="2" stroke-miterlimit="10"/>
<path d="M56 4L54 6" stroke="#315488" stroke-width="2" stroke-miterlimit="10"/>
<path d="M54 9L56 11" stroke="#315488" stroke-width="2" stroke-miterlimit="10"/>
<path d="M49 4L51 6" stroke="#315488" stroke-width="2" stroke-miterlimit="10"/>
<path d="M23 26.0999L32 30.7999L56.1 18.2999" stroke="#28282D" stroke-width="2" stroke-miterlimit="10" stroke-linecap="round" stroke-linejoin="round"/>
<path d="M8 18.2999L17.1 22.9999" stroke="#28282D" stroke-width="2" stroke-miterlimit="10" stroke-linecap="round" stroke-linejoin="round"/>
<path d="M32 31.1V57.1" stroke="#28282D" stroke-width="2" stroke-miterlimit="10" stroke-linecap="round" stroke-linejoin="round"/>
<path d="M40.3 10.2999L17 23.0999V28.0999L18 28.1999L19.7 30.0999L21.6 30.4999L23 31.7999V26.0999L46.5 13.5" stroke="#BF9724" stroke-width="2" stroke-miterlimit="10" stroke-linecap="round" stroke-linejoin="round"/>
<path d="M31.9 57.1L56 44.6V18.3L31.9 6.09998L8 18.3V44.6L31.9 57.1Z" stroke="#28282D" stroke-width="2" stroke-miterlimit="10" stroke-linecap="round" stroke-linejoin="round"/>
<g opacity="0.5">
<path d="M51.1 40.7L39 47.0999" stroke="#28282D" stroke-width="2" stroke-miterlimit="10" stroke-linecap="round" stroke-linejoin="round"/>
<path d="M49 29.1V38.1" stroke="#28282D" stroke-width="2" stroke-miterlimit="10" stroke-linecap="round" stroke-linejoin="round"/>
<path d="M46.5 32.5L49 28.5L51.5 30.1" stroke="#28282D" stroke-width="2" stroke-miterlimit="10" stroke-linecap="round" stroke-linejoin="round"/>
<path d="M41 33.1V42.1" stroke="#28282D" stroke-width="2" stroke-miterlimit="10" stroke-linecap="round" stroke-linejoin="round"/>
<path d="M38.5 36.5L41 32.5L43.5 34.1" stroke="#28282D" stroke-width="2" stroke-miterlimit="10" stroke-linecap="round" stroke-linejoin="round"/>
</g>
</svg>
