<svg width="64" height="64" viewBox="0 0 64 64" fill="none" xmlns="http://www.w3.org/2000/svg">
<path d="M32 60C47.464 60 60 47.464 60 32C60 16.536 47.464 3.99998 32 3.99998C16.536 3.99998 4 16.536 4 32C4 47.464 16.536 60 32 60Z" fill="white"/>
<path d="M58 22L56 24" stroke="#315488" stroke-width="2" stroke-miterlimit="10"/>
<path d="M63 17L61 19" stroke="#315488" stroke-width="2" stroke-miterlimit="10"/>
<path d="M61 22L63 24" stroke="#315488" stroke-width="2" stroke-miterlimit="10"/>
<path d="M56 17L58 19" stroke="#315488" stroke-width="2" stroke-miterlimit="10"/>
<path d="M56 48V29.3C56 28.2 55.4 27 54.5 26.3L47.2 20M16.8 20L9.5 26.3C8.6 27 8 28.1 8 29.3V48" stroke="#28282D" stroke-width="2" stroke-miterlimit="10" stroke-linecap="round" stroke-linejoin="round"/>
<path d="M22 6C19.2 6 17 8.2 17 11V37.5M47 37.5V11" stroke="#BF9724" stroke-width="2" stroke-miterlimit="10" stroke-linecap="round" stroke-linejoin="round"/>
<path d="M56 31C55.3533 31 54.7312 31.22 54.2314 31.6304C50.8224 34.4294 40.6972 42.76 39.6 43.4C38.2 44.2 35.3 45 32 45C28.7 45 25.8 44.2 24.4 43.4C23.3028 42.76 13.1776 34.4294 9.76864 31.6304C9.26884 31.22 8.64668 31 8 31V31V55C8 56.7 9.3 58 11 58H32H53C54.7 58 56 56.7 56 55V31V31Z" stroke="#28282D" stroke-width="2" stroke-miterlimit="10" stroke-linecap="round" stroke-linejoin="round"/>
<path opacity="0.5" d="M41.5 42.2L53.2 54.4" stroke="#28282D" stroke-width="2" stroke-miterlimit="10" stroke-linecap="round" stroke-linejoin="round"/>
<path opacity="0.5" d="M11.2 54.4L22.9 42.2" stroke="#28282D" stroke-width="2" stroke-miterlimit="10" stroke-linecap="round" stroke-linejoin="round"/>
<path opacity="0.56" d="M23 21H41" stroke="#28282D" stroke-width="2" stroke-miterlimit="10" stroke-linecap="round" stroke-linejoin="round"/>
<path d="M23 25H41" stroke="#28282D" stroke-width="2" stroke-miterlimit="10" stroke-linecap="round" stroke-linejoin="round"/>
<path opacity="0.56" d="M23 29H34" stroke="#28282D" stroke-width="2" stroke-miterlimit="10" stroke-linecap="round" stroke-linejoin="round"/>
<path d="M54 11C54 8 51.8 6 49 6H22C24.8 6 27 8 27 11H54Z" stroke="#BF9724" stroke-width="2" stroke-miterlimit="10" stroke-linecap="round" stroke-linejoin="round"/>
<path d="M11 11V17" stroke="#315488" stroke-width="2" stroke-miterlimit="10"/>
<path d="M8 14H14" stroke="#315488" stroke-width="2" stroke-miterlimit="10"/>
</svg>
