<svg width="83" height="67" viewBox="0 0 83 67" fill="none" xmlns="http://www.w3.org/2000/svg">
<path d="M37.9427 48.058V34.3137H20.2781C20.5612 30.4967 21.9483 27.2026 24.4395 24.4314C26.9306 21.6078 31.4317 18.7843 37.9427 15.9608L29.9597 2C19.3723 6.28758 11.8988 11.2288 7.53928 16.8235C3.17976 22.4183 1 30.0523 1 39.7255V66H16.9522M44.0573 48.058V39.7255C44.0573 30.0523 46.2371 22.4183 50.5966 16.8235C54.9561 11.2288 62.4296 6.28758 73.017 2L81 15.9608C74.489 18.7843 69.988 21.6078 67.4968 24.4314C65.0057 27.2026 63.6185 30.4967 63.3355 34.3137H81V48.058" stroke="#BF9724" stroke-width="2"/>
</svg>
