<svg viewBox="0 0 100 100" xmlns="http://www.w3.org/2000/svg" xmlns:xlink="http://www.w3.org/1999/xlink"><linearGradient id="a" gradientUnits="userSpaceOnUse" x1="66.16" x2="89.59" y1="55.88" y2="32.46"><stop offset="0" stop-color="#39c"/><stop offset=".08" stop-color="#33a0c5"/><stop offset=".42" stop-color="#33b8ad"/><stop offset=".74" stop-color="#33c79e"/><stop offset="1" stop-color="#3c9"/></linearGradient><linearGradient id="b" x1="74.64" x2="85.64" xlink:href="#a" y1="48.21" y2="37.2"/><path d="m0 0h100v100h-100z" fill="#222"/><path d="m67.72 57.44 1.91-6.2a12.23 12.23 0 0 1 -3.43-9 12.87 12.87 0 0 1 3.23-9c2.41-2.56 5.93-3.85 10.47-3.85s8.06 1.3 10.46 3.85a12.86 12.86 0 0 1 3.24 9 12.31 12.31 0 0 1 -3.32 8.86c-2.36 2.39-5.86 3.66-10.13 3.66h-.5a18.35 18.35 0 0 1 -4.11-.44zm12.18-27c-4.25 0-7.52 1.19-9.73 3.53a11.87 11.87 0 0 0 -3 8.34 11.18 11.18 0 0 0 3.34 8.45l.24.22-1.48 4.79 6.16-2.43h.15a16.61 16.61 0 0 0 4 .45h.5c4 0 7.25-1.16 9.41-3.35a11.31 11.31 0 0 0 3-8.15 11.89 11.89 0 0 0 -3-8.34c-2.21-2.35-5.48-3.54-9.73-3.54z" fill="url(#a)"/><path d="m85.32 46c-.27 2.24-2.38 3-4.76 3.1l-.17 1.79-2.39-.21.19-1.68-.87-.15a11.67 11.67 0 0 1 -3.09-1l.37-3a11.2 11.2 0 0 0 4.08 1.15c1 .09 2 .12 2.14-.43.13-.83-2.44-1.7-3.28-2-1.65-.57-3-1.46-2.73-3.79s2.14-3 4.52-3l.12-1.36-1.32-.12 2.79-2.81 2.22 3.26-1.32-.12-.13 1.31a8.18 8.18 0 0 1 3.31 1.06l-.33 2.67a5.47 5.47 0 0 0 -2.64-1c-1.27-.12-2.58-.17-2.66.51-.07.52 1.91 1 3.67 1.73a3.54 3.54 0 0 1 2.28 4.09z" fill="url(#b)"/><g fill="#fff"><path d="m6.83 57.44v-14.23h3.84v11.12h5.48v3.11z"/><path d="m16.93 43.67a1.62 1.62 0 0 1 .47-1.27 2.31 2.31 0 0 1 1.54-.4 2.3 2.3 0 0 1 1.55.43 1.59 1.59 0 0 1 .51 1.24c0 1.12-.67 1.67-2 1.67s-2.07-.55-2.07-1.67zm3.9 13.77h-3.83v-11h3.81z"/><path d="m30.8 54.05a3.16 3.16 0 0 1 -1.2 2.68 5.74 5.74 0 0 1 -3.47.9 14.64 14.64 0 0 1 -2.13-.13 9.53 9.53 0 0 1 -1.85-.5v-3a11.61 11.61 0 0 0 1.94.65 8.13 8.13 0 0 0 1.89.25c.82 0 1.23-.19 1.23-.56a.65.65 0 0 0 -.34-.53 17.71 17.71 0 0 0 -2-.89 4.94 4.94 0 0 1 -2.12-1.41 3.19 3.19 0 0 1 -.61-2 2.78 2.78 0 0 1 1.19-2.39 5.67 5.67 0 0 1 3.36-.86 8.33 8.33 0 0 1 2 .24 12.42 12.42 0 0 1 2 .69l-1 2.46a11.21 11.21 0 0 0 -1.6-.58 5.38 5.38 0 0 0 -1.38-.24c-.63 0-.94.15-.94.46a.59.59 0 0 0 .33.48 18.69 18.69 0 0 0 1.88.81 7.59 7.59 0 0 1 1.73.93 2.76 2.76 0 0 1 .83 1.08 3.72 3.72 0 0 1 .26 1.46z"/><path d="m37.12 54.63a5.79 5.79 0 0 0 1.88-.38v2.75a7.32 7.32 0 0 1 -1.47.47 7.79 7.79 0 0 1 -1.63.14 3.53 3.53 0 0 1 -2.76-.94 4.15 4.15 0 0 1 -.85-2.88v-4.52h-1.37v-1.55l1.69-1.2 1-2.31h2.49v2.2h2.7v2.86h-2.7v4.29c-.01.71.33 1.07 1.02 1.07z"/><path d="m45 57.63a6 6 0 0 1 -4.28-1.46 5.55 5.55 0 0 1 -1.51-4.17 6 6 0 0 1 1.41-4.29 5.29 5.29 0 0 1 4-1.49 5.34 5.34 0 0 1 3.85 1.3 4.94 4.94 0 0 1 1.35 3.74v1.74h-6.8a1.88 1.88 0 0 0 .68 1.45 2.64 2.64 0 0 0 1.74.53 8.81 8.81 0 0 0 1.84-.19 8.94 8.94 0 0 0 1.82-.65v2.74a6.91 6.91 0 0 1 -1.84.63 13.61 13.61 0 0 1 -2.26.12zm-.22-8.82a1.6 1.6 0 0 0 -1.13.42 2 2 0 0 0 -.53 1.33h3.28a1.9 1.9 0 0 0 -.4-1.28 1.52 1.52 0 0 0 -1.21-.47z"/><path d="m57.77 57.44v-6a3.43 3.43 0 0 0 -.32-1.66 1.07 1.07 0 0 0 -1-.56 1.46 1.46 0 0 0 -1.45.78 5.87 5.87 0 0 0 -.43 2.63v4.83h-3.8v-11h2.87l.48 1.37h.22a3 3 0 0 1 1.35-1.17 4.73 4.73 0 0 1 2-.39 3.72 3.72 0 0 1 2.84 1.06 4.14 4.14 0 0 1 1 3v7.17z"/><path d="m13 75.37-2.89-10.24h-.11c.13 1.74.2 3.1.2 4.06v6.18h-3.37v-14.22h5.11l3 10.1h.06l2.91-10.1h5.09v14.22h-3.51v-6.23c0-.33 0-.69 0-1.08s0-1.37.13-2.91h-.09l-2.85 10.22z"/><path d="m35.2 69.84a5.82 5.82 0 0 1 -1.46 4.21 5.37 5.37 0 0 1 -4.07 1.52 5.28 5.28 0 0 1 -4-1.55 6.67 6.67 0 0 1 0-8.37 5.42 5.42 0 0 1 4.08-1.5 5.83 5.83 0 0 1 2.87.69 4.82 4.82 0 0 1 1.92 2 6.44 6.44 0 0 1 .66 3zm-7.14 0a4.8 4.8 0 0 0 .38 2.16 1.3 1.3 0 0 0 1.27.74 1.27 1.27 0 0 0 1.29-.74 5.12 5.12 0 0 0 .37-2.16 5 5 0 0 0 -.37-2.14 1.33 1.33 0 0 0 -1.31-.7 1.3 1.3 0 0 0 -1.25.72 4.63 4.63 0 0 0 -.38 2.12z"/><path d="m43.13 75.37v-6a3.46 3.46 0 0 0 -.32-1.66 1.08 1.08 0 0 0 -1-.56 1.49 1.49 0 0 0 -1.4.77 5.92 5.92 0 0 0 -.41 2.63v4.82h-3.83v-11h2.83l.48 1.36h.22a3.07 3.07 0 0 1 1.35-1.17 4.73 4.73 0 0 1 2-.39 3.79 3.79 0 0 1 2.85 1.06 4.19 4.19 0 0 1 1 3v7.17z"/><path d="m53.65 75.57a5.91 5.91 0 0 1 -4.28-1.47 5.51 5.51 0 0 1 -1.52-4.17 6 6 0 0 1 1.41-4.28 5.26 5.26 0 0 1 4-1.5 5.39 5.39 0 0 1 3.85 1.3 5 5 0 0 1 1.35 3.74v1.7h-6.8a1.9 1.9 0 0 0 .68 1.45 2.64 2.64 0 0 0 1.74.52 8.19 8.19 0 0 0 1.92-.19 8.37 8.37 0 0 0 1.77-.67v2.74a6.86 6.86 0 0 1 -1.85.63 12.35 12.35 0 0 1 -2.27.2zm-.23-8.83a1.59 1.59 0 0 0 -1.12.42 2 2 0 0 0 -.53 1.33h3.23a1.87 1.87 0 0 0 -.45-1.27 1.5 1.5 0 0 0 -1.13-.48z"/><path d="m58.12 64.35h4l1.88 6.32a6.87 6.87 0 0 1 .19 1.2h.07a6.8 6.8 0 0 1 .24-1.18l1.91-6.34h3.89l-4.37 11.72a6.91 6.91 0 0 1 -2.06 3.16 5.12 5.12 0 0 1 -3.19.93 7.66 7.66 0 0 1 -1.55-.16v-3a5.82 5.82 0 0 0 1.17.11 1.91 1.91 0 0 0 .89-.19 2 2 0 0 0 .66-.55 4.83 4.83 0 0 0 .6-1.16z"/><path d="m13 93.31-2.89-10.25h-.11c.13 1.75.2 3.1.2 4.07v6.18h-3.37v-14.23h5.11l3 10.1h.06l2.91-10.1h5.09v14.23h-3.51v-6.24c0-.33 0-.69 0-1.08s0-1.37.13-2.91h-.09l-2.85 10.23z"/><path d="m31.86 93.31-.73-1.46h-.08a4.32 4.32 0 0 1 -1.56 1.3 5.25 5.25 0 0 1 -2.07.35 3.26 3.26 0 0 1 -2.42-.93 3.69 3.69 0 0 1 -.89-2.63 3 3 0 0 1 1.22-2.62 6.64 6.64 0 0 1 3.55-1l1.84-.06v-.16a1.19 1.19 0 0 0 -1.34-1.36 8.09 8.09 0 0 0 -3.06.82l-1.1-2.51a10.56 10.56 0 0 1 4.86-1 4.74 4.74 0 0 1 3.29 1 3.77 3.77 0 0 1 1.16 2.94v7.23zm-2.86-2.5a1.72 1.72 0 0 0 1.18-.43 1.46 1.46 0 0 0 .49-1.14v-.86h-.87c-1.25 0-1.88.51-1.88 1.38.08.72.4 1.05 1.08 1.05z"/><path d="m41.29 90.49a5.48 5.48 0 0 0 1.84-.38v2.78a7.78 7.78 0 0 1 -1.47.47 8.5 8.5 0 0 1 -1.66.14 3.57 3.57 0 0 1 -2.77-.94 4.22 4.22 0 0 1 -.84-2.88v-4.55h-1.3v-1.54l1.7-1.2 1-2.32h2.49v2.21h2.72v2.85h-2.7v4.29c-.04.72.3 1.07.99 1.07z"/><path d="m49.26 90.49a5.48 5.48 0 0 0 1.84-.38v2.78a7.78 7.78 0 0 1 -1.47.47 8.53 8.53 0 0 1 -1.63.14 3.56 3.56 0 0 1 -2.76-.94 4.22 4.22 0 0 1 -.84-2.88v-4.55h-1.34v-1.54l1.7-1.2 1-2.32h2.49v2.21h2.7v2.85h-2.7v4.29c-.02.72.32 1.07 1.01 1.07z"/><path d="m57.15 93.5a5.93 5.93 0 0 1 -4.27-1.5 5.51 5.51 0 0 1 -1.53-4.17 6 6 0 0 1 1.41-4.29 5.31 5.31 0 0 1 4-1.49 5.32 5.32 0 0 1 3.85 1.3 4.94 4.94 0 0 1 1.39 3.78v1.69h-6.8a1.87 1.87 0 0 0 .67 1.45 2.68 2.68 0 0 0 1.74.53 8.74 8.74 0 0 0 1.84-.19 9.91 9.91 0 0 0 1.83-.61v2.73a6.43 6.43 0 0 1 -1.85.63 12.54 12.54 0 0 1 -2.28.14zm-.22-8.82a1.61 1.61 0 0 0 -1.13.42 2 2 0 0 0 -.53 1.33h3.27a1.88 1.88 0 0 0 -.45-1.28 1.49 1.49 0 0 0 -1.16-.47z"/><path d="m69.61 82.09a4.77 4.77 0 0 1 .94.08h.21l-.34 3.59a6.1 6.1 0 0 0 -1.29-.11 2.47 2.47 0 0 0 -1.81.57 2.21 2.21 0 0 0 -.56 1.64v5.42h-3.76v-11h2.83l.6 1.76h.18a3.83 3.83 0 0 1 1.33-1.41 3.19 3.19 0 0 1 1.67-.54z"/><path d="m79.62 89.92a3.14 3.14 0 0 1 -1.21 2.68 5.71 5.71 0 0 1 -3.46.9 14.64 14.64 0 0 1 -2.13-.13 9.53 9.53 0 0 1 -1.82-.48v-3a10.76 10.76 0 0 0 1.94.64 8.11 8.11 0 0 0 1.88.26c.83 0 1.24-.19 1.24-.57a.65.65 0 0 0 -.35-.52 16 16 0 0 0 -2-.89 5.09 5.09 0 0 1 -2.12-1.41 3.24 3.24 0 0 1 -.6-2 2.79 2.79 0 0 1 1.19-2.4 5.66 5.66 0 0 1 3.35-.85 8.41 8.41 0 0 1 2.05.24 11.81 11.81 0 0 1 2 .69l-1 2.45a13.16 13.16 0 0 0 -1.6-.58 5.75 5.75 0 0 0 -1.39-.23q-.93 0-.93.45a.56.56 0 0 0 .33.48 15 15 0 0 0 1.88.82 7.59 7.59 0 0 1 1.73.93 2.88 2.88 0 0 1 .83 1.08 3.72 3.72 0 0 1 .19 1.44z"/></g></svg>